<mxfile host="Electron" modified="2024-05-04T18:11:36.655Z" agent="Mozilla/5.0 (Windows NT 10.0; Win64; x64) AppleWebKit/537.36 (KHTML, like Gecko) draw.io/24.2.5 Chrome/120.0.6099.109 Electron/28.1.0 Safari/537.36" etag="O1MVDFMt0ojUMQ3s10uo" version="24.2.5" type="device">
  <diagram id="C5RBs43oDa-KdzZeNtuy" name="Page-1">
    <mxGraphModel dx="1038" dy="616" grid="1" gridSize="10" guides="1" tooltips="1" connect="1" arrows="1" fold="1" page="1" pageScale="1" pageWidth="827" pageHeight="1169" math="0" shadow="0">
      <root>
        <mxCell id="WIyWlLk6GJQsqaUBKTNV-0" />
        <mxCell id="WIyWlLk6GJQsqaUBKTNV-1" parent="WIyWlLk6GJQsqaUBKTNV-0" />
        <mxCell id="KJ9ePcK7zbGUT8MwdRm9-20" style="edgeStyle=orthogonalEdgeStyle;rounded=0;orthogonalLoop=1;jettySize=auto;html=1;exitX=0.5;exitY=1;exitDx=0;exitDy=0;entryX=0.5;entryY=0;entryDx=0;entryDy=0;" parent="WIyWlLk6GJQsqaUBKTNV-1" source="WIyWlLk6GJQsqaUBKTNV-3" target="KJ9ePcK7zbGUT8MwdRm9-1" edge="1">
          <mxGeometry relative="1" as="geometry" />
        </mxCell>
        <mxCell id="WIyWlLk6GJQsqaUBKTNV-3" value="Lating Hyper Cube sample input variables" style="rounded=1;whiteSpace=wrap;html=1;fontSize=12;glass=0;strokeWidth=1;shadow=0;" parent="WIyWlLk6GJQsqaUBKTNV-1" vertex="1">
          <mxGeometry x="260" y="180" width="260" height="40" as="geometry" />
        </mxCell>
        <mxCell id="KJ9ePcK7zbGUT8MwdRm9-21" style="edgeStyle=orthogonalEdgeStyle;rounded=0;orthogonalLoop=1;jettySize=auto;html=1;exitX=0.5;exitY=1;exitDx=0;exitDy=0;entryX=0.5;entryY=0;entryDx=0;entryDy=0;" parent="WIyWlLk6GJQsqaUBKTNV-1" source="KJ9ePcK7zbGUT8MwdRm9-1" target="KJ9ePcK7zbGUT8MwdRm9-2" edge="1">
          <mxGeometry relative="1" as="geometry" />
        </mxCell>
        <mxCell id="KJ9ePcK7zbGUT8MwdRm9-1" value="Contrain inputs to valid operating regions (Greenwood Regime chart)" style="rounded=1;whiteSpace=wrap;html=1;fontSize=12;glass=0;strokeWidth=1;shadow=0;" parent="WIyWlLk6GJQsqaUBKTNV-1" vertex="1">
          <mxGeometry x="260" y="240" width="260" height="40" as="geometry" />
        </mxCell>
        <mxCell id="KJ9ePcK7zbGUT8MwdRm9-22" style="edgeStyle=orthogonalEdgeStyle;rounded=0;orthogonalLoop=1;jettySize=auto;html=1;exitX=0.5;exitY=1;exitDx=0;exitDy=0;entryX=0.5;entryY=0;entryDx=0;entryDy=0;" parent="WIyWlLk6GJQsqaUBKTNV-1" source="KJ9ePcK7zbGUT8MwdRm9-2" target="KJ9ePcK7zbGUT8MwdRm9-3" edge="1">
          <mxGeometry relative="1" as="geometry" />
        </mxCell>
        <mxCell id="KJ9ePcK7zbGUT8MwdRm9-2" value="Numerical EHL" style="rounded=1;whiteSpace=wrap;html=1;fontSize=12;glass=0;strokeWidth=1;shadow=0;" parent="WIyWlLk6GJQsqaUBKTNV-1" vertex="1">
          <mxGeometry x="260" y="300" width="260" height="40" as="geometry" />
        </mxCell>
        <mxCell id="KJ9ePcK7zbGUT8MwdRm9-23" style="edgeStyle=orthogonalEdgeStyle;rounded=0;orthogonalLoop=1;jettySize=auto;html=1;exitX=0.5;exitY=1;exitDx=0;exitDy=0;entryX=0.5;entryY=0;entryDx=0;entryDy=0;" parent="WIyWlLk6GJQsqaUBKTNV-1" source="KJ9ePcK7zbGUT8MwdRm9-3" target="KJ9ePcK7zbGUT8MwdRm9-8" edge="1">
          <mxGeometry relative="1" as="geometry" />
        </mxCell>
        <mxCell id="KJ9ePcK7zbGUT8MwdRm9-3" value="Construct numerical database" style="rounded=1;whiteSpace=wrap;html=1;fontSize=12;glass=0;strokeWidth=1;shadow=0;" parent="WIyWlLk6GJQsqaUBKTNV-1" vertex="1">
          <mxGeometry x="260" y="360" width="260" height="40" as="geometry" />
        </mxCell>
        <mxCell id="KJ9ePcK7zbGUT8MwdRm9-26" style="edgeStyle=orthogonalEdgeStyle;rounded=0;orthogonalLoop=1;jettySize=auto;html=1;exitX=0.5;exitY=1;exitDx=0;exitDy=0;entryX=0.5;entryY=0;entryDx=0;entryDy=0;" parent="WIyWlLk6GJQsqaUBKTNV-1" source="KJ9ePcK7zbGUT8MwdRm9-4" target="KJ9ePcK7zbGUT8MwdRm9-5" edge="1">
          <mxGeometry relative="1" as="geometry" />
        </mxCell>
        <mxCell id="KJ9ePcK7zbGUT8MwdRm9-4" value="ANN training" style="rounded=1;whiteSpace=wrap;html=1;fontSize=12;glass=0;strokeWidth=1;shadow=0;" parent="WIyWlLk6GJQsqaUBKTNV-1" vertex="1">
          <mxGeometry x="260" y="545" width="260" height="40" as="geometry" />
        </mxCell>
        <mxCell id="KJ9ePcK7zbGUT8MwdRm9-27" style="edgeStyle=orthogonalEdgeStyle;rounded=0;orthogonalLoop=1;jettySize=auto;html=1;exitX=0.5;exitY=1;exitDx=0;exitDy=0;entryX=0.5;entryY=0;entryDx=0;entryDy=0;" parent="WIyWlLk6GJQsqaUBKTNV-1" source="KJ9ePcK7zbGUT8MwdRm9-5" target="KJ9ePcK7zbGUT8MwdRm9-6" edge="1">
          <mxGeometry relative="1" as="geometry" />
        </mxCell>
        <mxCell id="KJ9ePcK7zbGUT8MwdRm9-5" value="ANN validation" style="rounded=1;whiteSpace=wrap;html=1;fontSize=12;glass=0;strokeWidth=1;shadow=0;" parent="WIyWlLk6GJQsqaUBKTNV-1" vertex="1">
          <mxGeometry x="260" y="610" width="260" height="40" as="geometry" />
        </mxCell>
        <mxCell id="KJ9ePcK7zbGUT8MwdRm9-28" style="edgeStyle=orthogonalEdgeStyle;rounded=0;orthogonalLoop=1;jettySize=auto;html=1;exitX=0.5;exitY=1;exitDx=0;exitDy=0;entryX=0.5;entryY=0;entryDx=0;entryDy=0;entryPerimeter=0;" parent="WIyWlLk6GJQsqaUBKTNV-1" source="KJ9ePcK7zbGUT8MwdRm9-6" target="KJ9ePcK7zbGUT8MwdRm9-12" edge="1">
          <mxGeometry relative="1" as="geometry" />
        </mxCell>
        <mxCell id="KJ9ePcK7zbGUT8MwdRm9-6" value="ANN test" style="rounded=1;whiteSpace=wrap;html=1;fontSize=12;glass=0;strokeWidth=1;shadow=0;" parent="WIyWlLk6GJQsqaUBKTNV-1" vertex="1">
          <mxGeometry x="260" y="670" width="260" height="40" as="geometry" />
        </mxCell>
        <mxCell id="KJ9ePcK7zbGUT8MwdRm9-19" style="edgeStyle=orthogonalEdgeStyle;rounded=0;orthogonalLoop=1;jettySize=auto;html=1;exitX=0.5;exitY=1;exitDx=0;exitDy=0;entryX=0.5;entryY=0;entryDx=0;entryDy=0;" parent="WIyWlLk6GJQsqaUBKTNV-1" source="KJ9ePcK7zbGUT8MwdRm9-7" target="WIyWlLk6GJQsqaUBKTNV-3" edge="1">
          <mxGeometry relative="1" as="geometry" />
        </mxCell>
        <mxCell id="KJ9ePcK7zbGUT8MwdRm9-7" value="Define limits of input variables based on common bearing operating conditions" style="rounded=1;whiteSpace=wrap;html=1;fontSize=12;glass=0;strokeWidth=1;shadow=0;" parent="WIyWlLk6GJQsqaUBKTNV-1" vertex="1">
          <mxGeometry x="260" y="120" width="260" height="40" as="geometry" />
        </mxCell>
        <mxCell id="KJ9ePcK7zbGUT8MwdRm9-24" style="edgeStyle=orthogonalEdgeStyle;rounded=0;orthogonalLoop=1;jettySize=auto;html=1;exitX=0.5;exitY=1;exitDx=0;exitDy=0;entryX=0.5;entryY=0;entryDx=0;entryDy=0;" parent="WIyWlLk6GJQsqaUBKTNV-1" source="KJ9ePcK7zbGUT8MwdRm9-8" target="KJ9ePcK7zbGUT8MwdRm9-9" edge="1">
          <mxGeometry relative="1" as="geometry" />
        </mxCell>
        <mxCell id="KJ9ePcK7zbGUT8MwdRm9-8" value="Normalise inputs" style="rounded=1;whiteSpace=wrap;html=1;fontSize=12;glass=0;strokeWidth=1;shadow=0;" parent="WIyWlLk6GJQsqaUBKTNV-1" vertex="1">
          <mxGeometry x="260" y="420" width="260" height="40" as="geometry" />
        </mxCell>
        <mxCell id="KJ9ePcK7zbGUT8MwdRm9-25" style="edgeStyle=orthogonalEdgeStyle;rounded=0;orthogonalLoop=1;jettySize=auto;html=1;exitX=0.5;exitY=1;exitDx=0;exitDy=0;entryX=0.5;entryY=0;entryDx=0;entryDy=0;" parent="WIyWlLk6GJQsqaUBKTNV-1" source="KJ9ePcK7zbGUT8MwdRm9-9" target="KJ9ePcK7zbGUT8MwdRm9-4" edge="1">
          <mxGeometry relative="1" as="geometry" />
        </mxCell>
        <mxCell id="KJ9ePcK7zbGUT8MwdRm9-9" value="Define ANN structure&lt;br&gt;(Hyperparameters and activation function)" style="rounded=1;whiteSpace=wrap;html=1;fontSize=12;glass=0;strokeWidth=1;shadow=0;" parent="WIyWlLk6GJQsqaUBKTNV-1" vertex="1">
          <mxGeometry x="260" y="480" width="260" height="40" as="geometry" />
        </mxCell>
        <mxCell id="KJ9ePcK7zbGUT8MwdRm9-16" value="Yes" style="edgeStyle=orthogonalEdgeStyle;rounded=0;orthogonalLoop=1;jettySize=auto;html=1;exitX=0.5;exitY=1;exitDx=0;exitDy=0;exitPerimeter=0;entryX=0.5;entryY=0;entryDx=0;entryDy=0;" parent="WIyWlLk6GJQsqaUBKTNV-1" source="KJ9ePcK7zbGUT8MwdRm9-12" target="KJ9ePcK7zbGUT8MwdRm9-15" edge="1">
          <mxGeometry relative="1" as="geometry" />
        </mxCell>
        <mxCell id="KJ9ePcK7zbGUT8MwdRm9-32" style="edgeStyle=orthogonalEdgeStyle;rounded=0;orthogonalLoop=1;jettySize=auto;html=1;exitX=0;exitY=0.5;exitDx=0;exitDy=0;exitPerimeter=0;entryX=0.036;entryY=0.929;entryDx=0;entryDy=0;entryPerimeter=0;" parent="WIyWlLk6GJQsqaUBKTNV-1" source="KJ9ePcK7zbGUT8MwdRm9-12" target="KJ9ePcK7zbGUT8MwdRm9-29" edge="1">
          <mxGeometry relative="1" as="geometry">
            <Array as="points">
              <mxPoint x="170" y="790" />
              <mxPoint x="170" y="500" />
            </Array>
          </mxGeometry>
        </mxCell>
        <mxCell id="KJ9ePcK7zbGUT8MwdRm9-33" value="No" style="edgeLabel;html=1;align=center;verticalAlign=middle;resizable=0;points=[];" parent="KJ9ePcK7zbGUT8MwdRm9-32" vertex="1" connectable="0">
          <mxGeometry x="-0.0198" y="2" relative="1" as="geometry">
            <mxPoint y="-45" as="offset" />
          </mxGeometry>
        </mxCell>
        <mxCell id="KJ9ePcK7zbGUT8MwdRm9-12" value="Assess all ANN&lt;br&gt;&amp;nbsp;structures?" style="strokeWidth=2;html=1;shape=mxgraph.flowchart.decision;whiteSpace=wrap;" parent="WIyWlLk6GJQsqaUBKTNV-1" vertex="1">
          <mxGeometry x="310" y="740" width="160" height="100" as="geometry" />
        </mxCell>
        <mxCell id="KJ9ePcK7zbGUT8MwdRm9-15" value="Select an ANN structure based on performance" style="rounded=1;whiteSpace=wrap;html=1;fontSize=12;glass=0;strokeWidth=1;shadow=0;" parent="WIyWlLk6GJQsqaUBKTNV-1" vertex="1">
          <mxGeometry x="260" y="880" width="260" height="40" as="geometry" />
        </mxCell>
        <mxCell id="KJ9ePcK7zbGUT8MwdRm9-29" value="" style="rounded=0;whiteSpace=wrap;html=1;dashed=1;strokeWidth=4;fillColor=none;strokeColor=#7EA6E0;dashPattern=1 1;" parent="WIyWlLk6GJQsqaUBKTNV-1" vertex="1">
          <mxGeometry x="250" y="110" width="280" height="360" as="geometry" />
        </mxCell>
        <mxCell id="KJ9ePcK7zbGUT8MwdRm9-30" value="" style="rounded=0;whiteSpace=wrap;html=1;dashed=1;strokeWidth=4;fillColor=none;strokeColor=#A680B8;dashPattern=1 1;" parent="WIyWlLk6GJQsqaUBKTNV-1" vertex="1">
          <mxGeometry x="250" y="530" width="280" height="190" as="geometry" />
        </mxCell>
      </root>
    </mxGraphModel>
  </diagram>
</mxfile>
